<svg width="145" height="41" viewBox="0 0 145 41" fill="none" xmlns="http://www.w3.org/2000/svg">
<rect x="0.25" y="0.25" width="40.5" height="40.5" rx="11.25" fill="#7C7C7C" fill-opacity="0.1"/>
<rect x="0.25" y="0.25" width="40.5" height="40.5" rx="11.25" stroke="#E5E5E5" stroke-width="0.5"/>
<path fill-rule="evenodd" clip-rule="evenodd" d="M19.5 22.5C19.5 22.7652 19.6054 23.0196 19.7929 23.2071C19.9804 23.3947 20.2348 23.5 20.5 23.5C20.7652 23.5 21.0196 23.3947 21.2071 23.2071C21.3946 23.0196 21.5 22.7652 21.5 22.5V14.5H23.5C23.6978 14.5 23.891 14.4413 24.0555 14.3314C24.2199 14.2215 24.348 14.0654 24.4237 13.8827C24.4993 13.7 24.5192 13.499 24.4806 13.305C24.442 13.111 24.3468 12.9329 24.207 12.793L21.207 9.79303C21.0195 9.60556 20.7652 9.50024 20.5 9.50024C20.2348 9.50024 19.9805 9.60556 19.793 9.79303L16.793 12.793C16.6532 12.9329 16.558 13.111 16.5194 13.305C16.4808 13.499 16.5007 13.7 16.5763 13.8827C16.652 14.0654 16.7801 14.2215 16.9445 14.3314C17.109 14.4413 17.3022 14.5 17.5 14.5H19.5V22.5ZM12.5 16.5C12.2348 16.5 11.9804 16.6054 11.7929 16.7929C11.6054 16.9805 11.5 17.2348 11.5 17.5V26.5C11.5 27.2957 11.8161 28.0587 12.3787 28.6214C12.9413 29.184 13.7044 29.5 14.5 29.5H26.5C27.2956 29.5 28.0587 29.184 28.6213 28.6214C29.1839 28.0587 29.5 27.2957 29.5 26.5V17.5C29.5 17.2348 29.3946 16.9805 29.2071 16.7929C29.0196 16.6054 28.7652 16.5 28.5 16.5H26.5C26.2348 16.5 25.9804 16.6054 25.7929 16.7929C25.6054 16.9805 25.5 17.2348 25.5 17.5C25.5 17.7652 25.6054 18.0196 25.7929 18.2071C25.9804 18.3947 26.2348 18.5 26.5 18.5H27.5V26.5C27.5 26.7652 27.3946 27.0196 27.2071 27.2071C27.0196 27.3947 26.7652 27.5 26.5 27.5H14.5C14.2348 27.5 13.9804 27.3947 13.7929 27.2071C13.6054 27.0196 13.5 26.7652 13.5 26.5V18.5H14.5C14.7652 18.5 15.0196 18.3947 15.2071 18.2071C15.3946 18.0196 15.5 17.7652 15.5 17.5C15.5 17.2348 15.3946 16.9805 15.2071 16.7929C15.0196 16.6054 14.7652 16.5 14.5 16.5H12.5Z" fill="#808080"/>
<rect x="52.25" y="0.25" width="40.5" height="40.5" rx="11.25" fill="#7C7C7C" fill-opacity="0.1"/>
<rect x="52.25" y="0.25" width="40.5" height="40.5" rx="11.25" stroke="#E5E5E5" stroke-width="0.5"/>
<path d="M71.4999 20.4999C71.7448 20.4999 71.9812 20.5899 72.1643 20.7526C72.3473 20.9154 72.4642 21.1397 72.4929 21.3829L72.4999 21.4999V26.4999C72.4996 26.7548 72.402 26.9999 72.227 27.1853C72.0521 27.3706 71.8129 27.4821 71.5585 27.4971C71.304 27.512 71.0535 27.4292 70.8581 27.2657C70.6626 27.1021 70.537 26.87 70.5069 26.6169L70.4999 26.4999V23.9139L65.2069 29.2069C65.0269 29.3863 64.7855 29.4904 64.5315 29.4981C64.2776 29.5059 64.0302 29.4167 63.8396 29.2487C63.649 29.0806 63.5296 28.8464 63.5055 28.5934C63.4814 28.3405 63.5545 28.0879 63.7099 27.8869L63.7929 27.7929L69.0859 22.4999H66.4999C66.245 22.4996 65.9999 22.402 65.8145 22.2271C65.6292 22.0521 65.5176 21.813 65.5027 21.5585C65.4878 21.3041 65.5706 21.0535 65.7341 20.8581C65.8977 20.6626 66.1298 20.537 66.3829 20.5069L66.4999 20.4999H71.4999ZM79.7929 11.7929C79.9728 11.6136 80.2143 11.5094 80.4683 11.5017C80.7222 11.4939 80.9696 11.5831 81.1602 11.7512C81.3507 11.9192 81.4702 12.1535 81.4943 12.4064C81.5184 12.6593 81.4453 12.9119 81.2899 13.1129L81.2069 13.2069L75.9139 18.4999H78.4999C78.7548 18.5002 78.9999 18.5978 79.1853 18.7728C79.3706 18.9477 79.4821 19.1869 79.4971 19.4413C79.512 19.6958 79.4292 19.9463 79.2656 20.1417C79.102 20.3372 78.87 20.4628 78.6169 20.4929L78.4999 20.4999H73.4999C73.255 20.4999 73.0185 20.41 72.8355 20.2472C72.6525 20.0844 72.5355 19.8602 72.5069 19.6169L72.4999 19.4999V14.4999C72.5002 14.245 72.5978 13.9999 72.7727 13.8145C72.9477 13.6292 73.1868 13.5177 73.4413 13.5027C73.6957 13.4878 73.9463 13.5706 74.1417 13.7342C74.3372 13.8978 74.4628 14.1298 74.4929 14.3829L74.4999 14.4999V17.0859L79.7929 11.7929Z" fill="#808080"/>
<rect x="104.25" y="0.25" width="40.5" height="40.5" rx="11.25" fill="#7C7C7C" fill-opacity="0.1"/>
<rect x="104.25" y="0.25" width="40.5" height="40.5" rx="11.25" stroke="#E5E5E5" stroke-width="0.5"/>
<path d="M132.4 21.1599C132.24 20.9774 132.151 20.7428 132.151 20.4999C132.151 20.257 132.24 20.0224 132.4 19.8399L133.68 18.3999C133.821 18.2426 133.909 18.0446 133.93 17.8344C133.952 17.6242 133.906 17.4126 133.8 17.2299L131.8 13.7699C131.695 13.5874 131.535 13.4428 131.343 13.3566C131.151 13.2704 130.936 13.2471 130.73 13.2899L128.85 13.6699C128.611 13.7193 128.362 13.6795 128.15 13.5579C127.938 13.4363 127.778 13.2414 127.7 13.0099L127.09 11.1799C127.023 10.9813 126.895 10.8088 126.725 10.6867C126.554 10.5647 126.35 10.4994 126.14 10.4999H122.14C121.922 10.4885 121.706 10.5488 121.525 10.6716C121.345 10.7944 121.209 10.9729 121.14 11.1799L120.58 13.0099C120.502 13.2414 120.342 13.4363 120.13 13.5579C119.918 13.6795 119.669 13.7193 119.43 13.6699L117.5 13.2899C117.304 13.2623 117.105 13.2931 116.927 13.3785C116.749 13.464 116.601 13.6001 116.5 13.7699L114.5 17.2299C114.391 17.4105 114.342 17.621 114.36 17.8311C114.378 18.0413 114.462 18.2403 114.6 18.3999L115.87 19.8399C116.03 20.0224 116.119 20.257 116.119 20.4999C116.119 20.7428 116.03 20.9774 115.87 21.1599L114.6 22.5999C114.462 22.7595 114.378 22.9585 114.36 23.1687C114.342 23.3788 114.391 23.5892 114.5 23.7699L116.5 27.2299C116.605 27.4124 116.765 27.557 116.957 27.6432C117.149 27.7294 117.364 27.7527 117.57 27.7099L119.45 27.3299C119.689 27.2805 119.938 27.3203 120.15 27.4419C120.362 27.5635 120.522 27.7584 120.6 27.9899L121.21 29.8199C121.279 30.0269 121.415 30.2054 121.595 30.3282C121.776 30.451 121.992 30.5113 122.21 30.4999H126.21C126.42 30.5004 126.624 30.4351 126.795 30.3131C126.965 30.191 127.093 30.0185 127.16 29.8199L127.77 27.9899C127.848 27.7584 128.008 27.5635 128.22 27.4419C128.432 27.3203 128.681 27.2805 128.92 27.3299L130.8 27.7099C131.006 27.7527 131.221 27.7294 131.413 27.6432C131.605 27.557 131.765 27.4124 131.87 27.2299L133.87 23.7699C133.976 23.5872 134.022 23.3756 134 23.1654C133.979 22.9552 133.891 22.7572 133.75 22.5999L132.4 21.1599ZM130.91 22.4999L131.71 23.3999L130.43 25.6199L129.25 25.3799C128.53 25.2327 127.78 25.355 127.144 25.7237C126.509 26.0924 126.03 26.6817 125.8 27.3799L125.42 28.4999H122.86L122.5 27.3599C122.27 26.6617 121.791 26.0724 121.155 25.7037C120.519 25.335 119.77 25.2127 119.05 25.3599L117.87 25.5999L116.57 23.3899L117.37 22.4899C117.862 21.9399 118.134 21.2278 118.134 20.4899C118.134 19.752 117.862 19.0399 117.37 18.4899L116.57 17.5899L117.85 15.3899L119.03 15.6299C119.75 15.7771 120.499 15.6548 121.135 15.2861C121.771 14.9174 122.25 14.3281 122.48 13.6299L122.86 12.4999H125.42L125.8 13.6399C126.03 14.3381 126.509 14.9274 127.144 15.2961C127.78 15.6648 128.53 15.7871 129.25 15.6399L130.43 15.3999L131.71 17.6199L130.91 18.5199C130.423 19.0687 130.155 19.7766 130.155 20.5099C130.155 21.2432 130.423 21.9511 130.91 22.4999ZM124.14 16.4999C123.349 16.4999 122.575 16.7345 121.918 17.174C121.26 17.6135 120.747 18.2383 120.444 18.9692C120.142 19.7001 120.062 20.5043 120.217 21.2803C120.371 22.0562 120.752 22.7689 121.311 23.3283C121.871 23.8877 122.584 24.2687 123.36 24.423C124.135 24.5774 124.94 24.4982 125.671 24.1954C126.402 23.8927 127.026 23.38 127.466 22.7222C127.905 22.0644 128.14 21.291 128.14 20.4999C128.14 19.439 127.718 18.4216 126.968 17.6715C126.218 16.9213 125.201 16.4999 124.14 16.4999ZM124.14 22.4999C123.744 22.4999 123.358 22.3826 123.029 22.1628C122.7 21.9431 122.444 21.6307 122.292 21.2653C122.141 20.8998 122.101 20.4977 122.178 20.1097C122.255 19.7218 122.446 19.3654 122.726 19.0857C123.005 18.806 123.362 18.6155 123.75 18.5383C124.138 18.4612 124.54 18.5008 124.905 18.6521C125.271 18.8035 125.583 19.0599 125.803 19.3888C126.023 19.7177 126.14 20.1043 126.14 20.4999C126.14 21.0303 125.929 21.539 125.554 21.9141C125.179 22.2892 124.67 22.4999 124.14 22.4999Z" fill="#808080"/>
</svg>
