<svg width="87" height="40" viewBox="0 0 87 40" fill="none" xmlns="http://www.w3.org/2000/svg">
<rect width="40" height="40" rx="6" fill="#EC9E0C" fill-opacity="0.1"/>
<path d="M16.3264 6.53064H8.9795C8.32999 6.53064 7.70708 6.78866 7.24781 7.24793C6.78853 7.7072 6.53052 8.33011 6.53052 8.97962V16.3266C6.53052 16.9761 6.78853 17.599 7.24781 18.0582C7.70708 18.5175 8.32999 18.7755 8.9795 18.7755H16.3264C16.9759 18.7755 17.5989 18.5175 18.0581 18.0582C18.5174 17.599 18.7754 16.9761 18.7754 16.3266V8.97962C18.7754 8.33011 18.5174 7.7072 18.0581 7.24793C17.5989 6.78866 16.9759 6.53064 16.3264 6.53064ZM16.3264 16.3266H8.9795V8.97962H16.3264V16.3266ZM31.0203 6.53064H23.6734C23.0239 6.53064 22.401 6.78866 21.9417 7.24793C21.4824 7.7072 21.2244 8.33011 21.2244 8.97962V16.3266C21.2244 16.9761 21.4824 17.599 21.9417 18.0582C22.401 18.5175 23.0239 18.7755 23.6734 18.7755H31.0203C31.6698 18.7755 32.2927 18.5175 32.752 18.0582C33.2113 17.599 33.4693 16.9761 33.4693 16.3266V8.97962C33.4693 8.33011 33.2113 7.7072 32.752 7.24793C32.2927 6.78866 31.6698 6.53064 31.0203 6.53064ZM31.0203 16.3266H23.6734V8.97962H31.0203V16.3266ZM16.3264 21.2245H8.9795C8.32999 21.2245 7.70708 21.4825 7.24781 21.9418C6.78853 22.4011 6.53052 23.024 6.53052 23.6735V31.0204C6.53052 31.6699 6.78853 32.2929 7.24781 32.7521C7.70708 33.2114 8.32999 33.4694 8.9795 33.4694H16.3264C16.9759 33.4694 17.5989 33.2114 18.0581 32.7521C18.5174 32.2929 18.7754 31.6699 18.7754 31.0204V23.6735C18.7754 23.024 18.5174 22.4011 18.0581 21.9418C17.5989 21.4825 16.9759 21.2245 16.3264 21.2245ZM16.3264 31.0204H8.9795V23.6735H16.3264V31.0204ZM31.0203 21.2245H23.6734C23.0239 21.2245 22.401 21.4825 21.9417 21.9418C21.4824 22.4011 21.2244 23.024 21.2244 23.6735V31.0204C21.2244 31.6699 21.4824 32.2929 21.9417 32.7521C22.401 33.2114 23.0239 33.4694 23.6734 33.4694H31.0203C31.6698 33.4694 32.2927 33.2114 32.752 32.7521C33.2113 32.2929 33.4693 31.6699 33.4693 31.0204V23.6735C33.4693 23.024 33.2113 22.4011 32.752 21.9418C32.2927 21.4825 31.6698 21.2245 31.0203 21.2245ZM31.0203 31.0204H23.6734V23.6735H31.0203V31.0204Z" fill="#FFA821"/>
<g opacity="0.1">
<path d="M79.2 21.2H55.2C54.5635 21.2 53.9531 21.4529 53.503 21.9029C53.0529 22.353 52.8 22.9635 52.8 23.6V29.6C52.8 30.2365 53.0529 30.847 53.503 31.2971C53.9531 31.7471 54.5635 32 55.2 32H79.2C79.8366 32 80.447 31.7471 80.8971 31.2971C81.3472 30.847 81.6 30.2365 81.6 29.6V23.6C81.6 22.9635 81.3472 22.353 80.8971 21.9029C80.447 21.4529 79.8366 21.2 79.2 21.2ZM79.2 29.6H55.2V23.6H79.2V29.6ZM79.2 8H55.2C54.5635 8 53.9531 8.25286 53.503 8.70294C53.0529 9.15303 52.8 9.76348 52.8 10.4V16.4C52.8 17.0365 53.0529 17.647 53.503 18.0971C53.9531 18.5471 54.5635 18.8 55.2 18.8H79.2C79.8366 18.8 80.447 18.5471 80.8971 18.0971C81.3472 17.647 81.6 17.0365 81.6 16.4V10.4C81.6 9.76348 81.3472 9.15303 80.8971 8.70294C80.447 8.25286 79.8366 8 79.2 8ZM79.2 16.4H55.2V10.4H79.2V16.4Z" fill="black"/>
</g>
</svg>
