<svg width="24" height="24" viewBox="0 0 24 24" fill="none" xmlns="http://www.w3.org/2000/svg">
<path d="M20.5603 10.5639L13.0603 3.06387C12.779 2.78278 12.3977 2.62488 12 2.62488C11.6024 2.62488 11.221 2.78278 10.9397 3.06387L3.4397 10.5639C3.29973 10.7028 3.18878 10.8682 3.1133 11.0503C3.03782 11.2325 2.99931 11.4279 3.00001 11.6251V20.6251C3.00001 20.824 3.07903 21.0148 3.21968 21.1555C3.36033 21.2961 3.5511 21.3751 3.75001 21.3751H9.75001C9.94892 21.3751 10.1397 21.2961 10.2803 21.1555C10.421 21.0148 10.5 20.824 10.5 20.6251V15.3751H13.5V20.6251C13.5 20.824 13.579 21.0148 13.7197 21.1555C13.8603 21.2961 14.0511 21.3751 14.25 21.3751H20.25C20.4489 21.3751 20.6397 21.2961 20.7803 21.1555C20.921 21.0148 21 20.824 21 20.6251V11.6251C21.0007 11.4279 20.9622 11.2325 20.8867 11.0503C20.8112 10.8682 20.7003 10.7028 20.5603 10.5639ZM19.5 19.8751H15V14.6251C15 14.4262 14.921 14.2354 14.7803 14.0948C14.6397 13.9541 14.4489 13.8751 14.25 13.8751H9.75001C9.5511 13.8751 9.36033 13.9541 9.21968 14.0948C9.07903 14.2354 9.00001 14.4262 9.00001 14.6251V19.8751H4.50001V11.6251L12 4.12512L19.5 11.6251V19.8751Z" fill="black"/>
</svg>
