<svg width="40" height="40" viewBox="0 0 40 40" fill="none" xmlns="http://www.w3.org/2000/svg">
<rect x="0.25" y="0.25" width="39.5" height="39.5" rx="19.75" fill="white"/>
<rect x="0.25" y="0.25" width="39.5" height="39.5" rx="19.75" stroke="url(#paint0_linear_1_443)" stroke-width="0.5"/>
<path d="M20 16C20 16 20 16 19.24 15C18.36 13.84 17.06 13 15.5 13C13.01 13 11 15.01 11 17.5C11 18.43 11.28 19.29 11.76 20C12.57 21.21 20 29 20 29M20 16C20 16 20 16 20.76 15C21.64 13.84 22.94 13 24.5 13C26.99 13 29 15.01 29 17.5C29 18.43 28.72 19.29 28.24 20C27.43 21.21 20 29 20 29" fill="#FFA821"/>
<defs>
<linearGradient id="paint0_linear_1_443" x1="1.48115" y1="4.35914" x2="39.8294" y2="6.59133" gradientUnits="userSpaceOnUse">
<stop stop-color="white"/>
<stop offset="0.240561" stop-color="#CFCFCF" stop-opacity="0"/>
<stop offset="0.735621" stop-color="#EEEEEE" stop-opacity="0"/>
<stop offset="1" stop-color="white"/>
</linearGradient>
</defs>
</svg>
