<svg width="87" height="40" viewBox="0 0 87 40" fill="none" xmlns="http://www.w3.org/2000/svg">
<g opacity="0.1">
<path d="M16.3265 6.53064H8.97959C8.33008 6.53064 7.70717 6.78866 7.2479 7.24793C6.78863 7.7072 6.53061 8.33011 6.53061 8.97962V16.3266C6.53061 16.9761 6.78863 17.599 7.2479 18.0582C7.70717 18.5175 8.33008 18.7755 8.97959 18.7755H16.3265C16.976 18.7755 17.5989 18.5175 18.0582 18.0582C18.5175 17.599 18.7755 16.9761 18.7755 16.3266V8.97962C18.7755 8.33011 18.5175 7.7072 18.0582 7.24793C17.5989 6.78866 16.976 6.53064 16.3265 6.53064ZM16.3265 16.3266H8.97959V8.97962H16.3265V16.3266ZM31.0204 6.53064H23.6735C23.024 6.53064 22.401 6.78866 21.9418 7.24793C21.4825 7.7072 21.2245 8.33011 21.2245 8.97962V16.3266C21.2245 16.9761 21.4825 17.599 21.9418 18.0582C22.401 18.5175 23.024 18.7755 23.6735 18.7755H31.0204C31.6699 18.7755 32.2928 18.5175 32.7521 18.0582C33.2114 17.599 33.4694 16.9761 33.4694 16.3266V8.97962C33.4694 8.33011 33.2114 7.7072 32.7521 7.24793C32.2928 6.78866 31.6699 6.53064 31.0204 6.53064ZM31.0204 16.3266H23.6735V8.97962H31.0204V16.3266ZM16.3265 21.2245H8.97959C8.33008 21.2245 7.70717 21.4825 7.2479 21.9418C6.78863 22.4011 6.53061 23.024 6.53061 23.6735V31.0204C6.53061 31.6699 6.78863 32.2929 7.2479 32.7521C7.70717 33.2114 8.33008 33.4694 8.97959 33.4694H16.3265C16.976 33.4694 17.5989 33.2114 18.0582 32.7521C18.5175 32.2929 18.7755 31.6699 18.7755 31.0204V23.6735C18.7755 23.024 18.5175 22.4011 18.0582 21.9418C17.5989 21.4825 16.976 21.2245 16.3265 21.2245ZM16.3265 31.0204H8.97959V23.6735H16.3265V31.0204ZM31.0204 21.2245H23.6735C23.024 21.2245 22.401 21.4825 21.9418 21.9418C21.4825 22.4011 21.2245 23.024 21.2245 23.6735V31.0204C21.2245 31.6699 21.4825 32.2929 21.9418 32.7521C22.401 33.2114 23.024 33.4694 23.6735 33.4694H31.0204C31.6699 33.4694 32.2928 33.2114 32.7521 32.7521C33.2114 32.2929 33.4694 31.6699 33.4694 31.0204V23.6735C33.4694 23.024 33.2114 22.4011 32.7521 21.9418C32.2928 21.4825 31.6699 21.2245 31.0204 21.2245ZM31.0204 31.0204H23.6735V23.6735H31.0204V31.0204Z" fill="black"/>
</g>
<rect x="48" width="38.4" height="40" rx="6" fill="#F8F0E1"/>
<path d="M79.2 21.2H55.2C54.5634 21.2 53.953 21.4529 53.5029 21.9029C53.0528 22.353 52.8 22.9635 52.8 23.6V29.6C52.8 30.2365 53.0528 30.847 53.5029 31.2971C53.953 31.7471 54.5634 32 55.2 32H79.2C79.8365 32 80.4469 31.7471 80.897 31.2971C81.3471 30.847 81.6 30.2365 81.6 29.6V23.6C81.6 22.9635 81.3471 22.353 80.897 21.9029C80.4469 21.4529 79.8365 21.2 79.2 21.2ZM79.2 29.6H55.2V23.6H79.2V29.6ZM79.2 8H55.2C54.5634 8 53.953 8.25286 53.5029 8.70294C53.0528 9.15303 52.8 9.76348 52.8 10.4V16.4C52.8 17.0365 53.0528 17.647 53.5029 18.0971C53.953 18.5471 54.5634 18.8 55.2 18.8H79.2C79.8365 18.8 80.4469 18.5471 80.897 18.0971C81.3471 17.647 81.6 17.0365 81.6 16.4V10.4C81.6 9.76348 81.3471 9.15303 80.897 8.70294C80.4469 8.25286 79.8365 8 79.2 8ZM79.2 16.4H55.2V10.4H79.2V16.4Z" fill="#FFA821"/>
</svg>
